<?xml version="1.0" encoding="iso-8859-1"?>
<!-- Generator: Adobe Illustrator 19.0.0, SVG Export Plug-In . SVG Version: 6.00 Build 0)  -->
<svg xmlns="http://www.w3.org/2000/svg" xmlns:xlink="http://www.w3.org/1999/xlink" version="1.1" id="Capa_1" x="0px" y="0px" viewBox="0 0 512 512" style="enable-background:new 0 0 512 512;" xml:space="preserve" width="512px" height="512px">
<g>
	<g>
		<path d="M256,361c-7.527,0-14.932-0.52-22.191-1.503L244.311,391h23.379l10.501-31.503C270.932,360.48,263.527,361,256,361z" fill="#d31d17"/>
	</g>
</g>
<g>
	<g>
		<path d="M312.779,350.567l-18.675,56.035L320.204,512H361V322.623C346.731,334.518,330.504,344.004,312.779,350.567z" fill="#d31d17"/>
	</g>
</g>
<g>
	<g>
		<path d="M199.221,350.566c-17.725-6.563-33.951-16.049-48.221-27.944V512h40.796l26.1-105.398L199.221,350.566z" fill="#d31d17"/>
	</g>
</g>
<g>
	<g>
		<path d="M397.048,281.173c-1.837,3.029-4.028,5.799-6.048,8.698V512h75c8.291,0,15-6.709,15-15v-91    C481,349.635,446.225,301.359,397.048,281.173z" fill="#d31d17"/>
	</g>
</g>
<g>
	<g>
		<path d="M114.952,281.173C65.775,301.359,31,349.635,31,406v91c0,8.291,6.709,15,15,15h75V289.871    C118.98,286.972,116.789,284.202,114.952,281.173z" fill="#d31d17"/>
	</g>
</g>
<g>
	<g>
		<polygon points="266.781,421 245.219,421 222.706,512 289.294,512   " fill="#d31d17"/>
	</g>
</g>
<g>
	<g>
		<path d="M122.516,211c7.573,67.315,64.177,120,133.484,120c65.798,0,125.458-47.941,133.53-120H122.516z" fill="#d31d17"/>
	</g>
</g>
<g>
	<g>
		<path d="M391,121h-8.17C371.106,87.946,346.776,61.591,316,46.24V76.3c0,8.117-6.581,14.7-14.7,14.7h-0.6    c-8.119,0-14.7-6.583-14.7-14.7c0-17.684,0-27.471,0-45.3c0-16.538-13.462-31-30-31c-16.538,0-30,14.462-30,31    c0,7.566,0,12.542,0,15.715c0,3.793,0,5.005,0,4.948c0,4.281,0,11.848,0,24.637c0,8.119-6.579,14.7-14.7,14.7    c-8.45,0-15.3-6.85-15.3-15.3V46.176C165.271,61.52,140.909,87.904,129.17,121H121c-16.569,0-30,13.431-30,30    c0,16.567,13.431,30,30,30h270c16.569,0,30-13.433,30-30C421,134.431,407.569,121,391,121z" fill="#d31d17"/>
	</g>
</g>
<g>
</g>
<g>
</g>
<g>
</g>
<g>
</g>
<g>
</g>
<g>
</g>
<g>
</g>
<g>
</g>
<g>
</g>
<g>
</g>
<g>
</g>
<g>
</g>
<g>
</g>
<g>
</g>
<g>
</g>
</svg>
