<?xml version="1.0" encoding="iso-8859-1"?>
<!-- Generator: Adobe Illustrator 19.0.0, SVG Export Plug-In . SVG Version: 6.00 Build 0)  -->
<svg xmlns="http://www.w3.org/2000/svg" xmlns:xlink="http://www.w3.org/1999/xlink" version="1.1" id="Capa_1" x="0px" y="0px" viewBox="0 0 512 512" style="enable-background:new 0 0 512 512;" xml:space="preserve" width="512px" height="512px">
<g>
	<g>
		<path d="M256,211c-24.813,0-45,20.187-45,45s20.187,45,45,45s45-20.187,45-45S280.813,211,256,211z M256,271    c-8.271,0-15-6.729-15-15s6.729-15,15-15s15,6.729,15,15S264.271,271,256,271z" fill="#d31d17"/>
	</g>
</g>
<g>
	<g>
		<path d="M480.789,333.169c-7.384-23.287-25.192-49.728-52.09-77.242c6.52-6.695,12.588-13.404,18.135-20.089    c24.997-30.128,50.501-73.566,31.003-107.338c-15.373-26.628-53.956-36.313-108.635-27.265c-8.724,1.443-17.73,3.338-26.948,5.644    c-2.603-9.199-5.455-18-8.559-26.324C314.326,28.608,286.734,0,256,0s-58.326,28.608-77.694,80.554    c-3.11,8.342-5.968,17.163-8.575,26.382c-37.88-9.467-71.324-11.675-96.01-5.55C65.922,94.905,55.909,91,45,91    c-24.813,0-45,20.187-45,45c0,20.004,13.124,36.994,31.212,42.831c7.384,23.287,25.192,49.728,52.09,77.242    c-6.52,6.695-12.588,13.404-18.135,20.089C40.17,306.29,14.666,349.728,34.164,383.5c19.444,33.679,70.417,33.589,108.635,27.265    c8.724-1.443,17.73-3.338,26.948-5.644c2.603,9.199,5.455,18,8.559,26.324C197.674,483.392,225.266,512,256,512    s58.326-28.608,77.694-80.554c3.111-8.344,5.97-17.168,8.578-26.391c29.358,7.337,66.52,12.872,96.004,5.556    C446.075,417.094,456.089,421,467,421c24.813,0,45-20.187,45-45C512,355.996,498.876,339.006,480.789,333.169z M45,151    c-8.271,0-15-6.729-15-15s6.729-15,15-15s15,6.729,15,15S53.271,151,45,151z M62.594,177.415C78.689,170.552,90,154.573,90,136    c0-2.411-0.196-4.777-0.563-7.087c18.18-2.417,43.36-0.229,73.176,7.21c-3.984,19.141-6.988,39.54-8.94,60.76    c-17.634,12.438-33.998,25.375-48.731,38.52C84.746,214.88,69.999,194.93,62.594,177.415z M151.308,276.104    c-8.613-6.643-16.78-13.354-24.443-20.071c7.691-6.783,15.857-13.515,24.444-20.149    C150.909,249.098,150.886,262.137,151.308,276.104z M137.902,381.167c-40.265,6.661-69.333,1.925-77.758-12.667    c-8.378-14.511,2.13-41.87,28.11-73.183c5.12-6.17,10.732-12.372,16.774-18.569c14.768,13.144,31.088,26.028,48.647,38.398    c1.956,21.25,4.967,41.677,8.96,60.84C154.164,378.104,145.898,379.845,137.902,381.167z M325.703,175.34    c-11.915-7.355-23.417-13.956-34.646-19.99c9.95-4.047,19.784-7.688,29.437-10.897    C322.512,154.399,324.252,164.717,325.703,175.34z M206.415,91.035C220.665,52.817,239.201,30,256,30s35.335,22.817,49.585,61.035    c2.846,7.633,5.465,15.717,7.858,24.176c-18.698,6.109-37.995,13.721-57.467,22.673c-19.584-8.988-38.874-16.566-57.433-22.622    C200.94,106.785,203.563,98.684,206.415,91.035z M191.49,144.535c9.488,3.142,19.31,6.752,29.405,10.842    c-11.543,6.207-22.759,12.658-34.599,19.973C187.743,164.752,189.478,154.458,191.49,144.535z M186.297,336.66    c11.959,7.383,23.094,13.772,34.658,19.985c-9.954,4.049-19.792,7.691-29.448,10.902    C189.488,357.601,187.748,347.283,186.297,336.66z M305.585,420.965C291.335,459.183,272.799,482,256,482    s-35.335-22.817-49.585-61.035c-2.846-7.633-5.465-15.717-7.858-24.176c18.701-6.11,38.001-13.723,57.476-22.677    c19.581,8.986,38.869,16.57,57.425,22.625C311.061,405.215,308.437,413.316,305.585,420.965z M320.51,367.465    c-9.488-3.142-19.31-6.752-29.406-10.842c11.79-6.339,23.015-12.817,34.599-19.973    C324.257,347.248,322.522,357.542,320.51,367.465z M329.57,298.498c-23.209,15.56-48.163,30.005-73.564,42.434    c-25.099-12.264-50.079-26.681-73.578-42.454c-1.883-27.731-1.927-56.574,0.001-84.975c23.204-15.556,48.163-30.006,73.564-42.433    c25.097,12.262,50.079,26.681,73.578,42.454C331.454,241.254,331.499,270.097,329.57,298.498z M374.098,130.833    c40.265-6.661,69.333-1.925,77.758,12.667c8.378,14.511-2.13,41.87-28.11,73.183c-5.12,6.17-10.732,12.372-16.773,18.569    c-14.768-13.144-31.088-26.028-48.647-38.398c-1.956-21.25-4.967-41.677-8.96-60.84    C357.836,133.896,366.102,132.155,374.098,130.833z M360.692,235.896c8.613,6.643,16.78,13.354,24.443,20.071    c-7.691,6.783-15.857,13.515-24.444,20.149C361.091,262.902,361.114,249.863,360.692,235.896z M422,376    c0,2.411,0.196,4.777,0.563,7.086c-18.18,2.417-43.361,0.229-73.176-7.209c3.984-19.141,6.988-39.54,8.94-60.76    c17.634-12.438,33.998-25.375,48.731-38.52c20.196,20.523,34.943,40.473,42.347,57.988C433.311,341.448,422,357.427,422,376z     M467,391c-8.271,0-15-6.729-15-15s6.729-15,15-15s15,6.729,15,15S475.271,391,467,391z" fill="#d31d17"/>
	</g>
</g>
<g>
</g>
<g>
</g>
<g>
</g>
<g>
</g>
<g>
</g>
<g>
</g>
<g>
</g>
<g>
</g>
<g>
</g>
<g>
</g>
<g>
</g>
<g>
</g>
<g>
</g>
<g>
</g>
<g>
</g>
</svg>
