<?xml version="1.0" encoding="iso-8859-1"?>
<!-- Generator: Adobe Illustrator 19.0.0, SVG Export Plug-In . SVG Version: 6.00 Build 0)  -->
<svg xmlns="http://www.w3.org/2000/svg" xmlns:xlink="http://www.w3.org/1999/xlink" version="1.1" id="Capa_1" x="0px" y="0px" viewBox="0 0 512 512" style="enable-background:new 0 0 512 512;" xml:space="preserve" width="512px" height="512px">
<g>
	<g>
		<path d="M330.878,162.694V87.237c17.422-6.213,30-22.707,30-42.237c0-24.814-20.186-45-45-45h-120c-24.814,0-44.8,20.186-44.8,45    c0,19.53,12.578,36.024,30,42.237v75.456l-47.828,76.213l13.806,6.903c30.586,15.293,67.061,15.293,97.646,0    c44.604-22.28,98.042-18.97,139.453,8.687l7.018,4.678L330.878,162.694z" fill="#d31d17"/>
	</g>
</g>
<g>
	<g>
		<path d="M195.879,392c-8.276,0-15,6.724-15,15s6.724,15,15,15s15-6.724,15-15S204.156,392,195.879,392z" fill="#d31d17"/>
	</g>
</g>
<g>
	<g>
		<path d="M315.879,332c-8.276,0-15,6.724-15,15s6.724,15,15,15s15-6.724,15-15S324.156,332,315.879,332z" fill="#d31d17"/>
	</g>
</g>
<g>
	<g>
		<path d="M467.96,382.039l-38.165-61.069l-62.28-41.514c-32.505-21.665-74.429-24.287-109.395-6.812    c-38.965,19.512-85.518,19.512-124.482,0l-16.36-8.179L43.999,382.039C8.627,438.56,49.895,512,115.826,512h280.107    C462.389,512,503.326,438.553,467.96,382.039z M195.879,302c8.284,0,15,6.716,15,15s-6.716,15-15,15s-15-6.716-15-15    S187.596,302,195.879,302z M195.879,452c-24.814,0-45-20.186-45-45c0-24.814,20.186-45,45-45c24.814,0,45,20.186,45,45    C240.879,431.814,220.694,452,195.879,452z M285.879,452c-8.284,0-15-6.716-15-15s6.716-15,15-15s15,6.716,15,15    S294.163,452,285.879,452z M315.879,392c-24.814,0-45-20.186-45-45c0-24.814,20.186-45,45-45c24.814,0,45,20.186,45,45    C360.879,371.814,340.694,392,315.879,392z M375.879,422c-8.284,0-15-6.716-15-15s6.716-15,15-15s15,6.716,15,15    S384.163,422,375.879,422z" fill="#d31d17"/>
	</g>
</g>
<g>
</g>
<g>
</g>
<g>
</g>
<g>
</g>
<g>
</g>
<g>
</g>
<g>
</g>
<g>
</g>
<g>
</g>
<g>
</g>
<g>
</g>
<g>
</g>
<g>
</g>
<g>
</g>
<g>
</g>
</svg>
