<?xml version="1.0" encoding="utf-8"?>
<!-- Generator: Adobe Illustrator 22.0.0, SVG Export Plug-In . SVG Version: 6.00 Build 0)  -->
<svg version="1.1" id="Capa_1" xmlns="http://www.w3.org/2000/svg" xmlns:xlink="http://www.w3.org/1999/xlink" x="0px" y="0px"
	 viewBox="0 0 512 512" style="enable-background:new 0 0 512 512;" xml:space="preserve">
<style type="text/css">
	.st0{fill:#FFFFFF;}
</style>
<path class="st0" d="M454.5,264.2l-116.6,32.4l53.3,82.8c2.2,3.4,1.7,7.8-1.1,10.6c-1.6,1.6-3.8,2.5-6,2.5c-1.6,0-3.2-0.4-4.6-1.4
	l-82.8-53.3l-32.4,116.6c-1,3.7-4.4,6.2-8.2,6.2c-3.8,0-7.2-2.6-8.2-6.2l-32.4-116.6l-82.8,53.3c-1.4,0.9-3,1.4-4.6,1.4
	c-2.2,0-4.4-0.9-6-2.5c-2.8-2.8-3.3-7.3-1.1-10.6l53.3-82.8L57.5,264.2c-3.7-1-6.2-4.4-6.2-8.2s2.6-7.2,6.2-8.2l116.6-32.4
	l-53.3-82.8c-2.2-3.4-1.7-7.8,1.1-10.7c2.8-2.8,7.3-3.3,10.7-1.1l82.8,53.3l32.4-116.6c1-3.7,4.4-6.2,8.2-6.2c3.8,0,7.2,2.6,8.2,6.2
	l32.4,116.6l82.8-53.3c3.7-2.4,8.5-1.6,11.3,1.8c2.7,3.4,2.5,8.3-0.6,11.4c-1,1.3-8.9,12.6-52.5,81.2l117,32.5
	c3.7,1,6.2,4.4,6.2,8.2C460.8,259.8,458.2,263.2,454.5,264.2z"/>
<g>
	<g>
		<circle cx="256" cy="256" r="17.1"/>
	</g>
</g>
<g>
	<g>
		<path d="M302.6,190.5l3.3,15.6l15.2,3.2c14.5-22.9,25.3-39.7,33.3-52.1L302.6,190.5z"/>
	</g>
</g>
<g>
	<g>
		<polygon points="156.5,156.5 190.5,209.4 206.1,206.1 209.4,190.5 		"/>
	</g>
</g>
<g>
	<g>
		<polygon points="206.1,305.9 190.5,302.6 156.5,355.5 209.4,321.5 		"/>
	</g>
</g>
<g>
	<g>
		<polygon points="321.5,302.6 305.9,305.9 302.6,321.5 355.5,355.5 		"/>
	</g>
</g>
<g>
	<g>
		<path d="M256,0C114.8,0,0,114.8,0,256s114.8,256,256,256s256-114.8,256-256S397.2,0,256,0z M414.3,262.5l-93,25.8l42.5,66
			c1.8,2.7,1.4,6.2-0.9,8.5c-1.3,1.3-3,2-4.8,2c-1.3,0-2.6-0.3-3.7-1.1l-66-42.5l-25.8,93c-0.8,3-3.5,4.9-6.5,4.9
			c-3,0-5.7-2.1-6.5-4.9l-25.8-93l-66,42.5c-1.1,0.7-2.4,1.1-3.7,1.1c-1.8,0-3.5-0.7-4.8-2c-2.2-2.2-2.6-5.8-0.9-8.5l42.5-66
			l-93.2-25.8c-3-0.8-4.9-3.5-4.9-6.5s2.1-5.7,4.9-6.5l93-25.8l-42.5-66c-1.8-2.7-1.4-6.2,0.9-8.5c2.2-2.2,5.8-2.6,8.5-0.9l66,42.5
			l25.8-93c0.8-3,3.5-4.9,6.5-4.9c3,0,5.7,2.1,6.5,4.9l25.8,93l66-42.5c3-1.9,6.8-1.3,9,1.4c2.2,2.7,2,6.6-0.5,9.1
			c-0.8,1-7.1,10-41.9,64.8l93.3,25.9c3,0.8,4.9,3.5,4.9,6.5C419.3,259,417.3,261.7,414.3,262.5z"/>
	</g>
</g>
<g>
	<g>
		<path d="M400.9,250.6c-14.3-4-28.5-7.9-42.7-11.9s-28.4-7.9-42.6-11.8c-3.8-1.1-7.5-2.1-11.3-3.1c-2.9-0.8-6.4-1.2-9.2-2.7
			c-0.8-0.4-1.5-0.9-2.2-1.5c-2.9-2.8-3.5-7.5-4.5-11.3c-1.4-5-2.8-10.1-4.2-15.1c-4-14.3-7.9-28.6-11.9-42.9
			c-3.8-13.8-7.6-27.5-11.5-41.3c-1.2-4.2-2.3-8.5-3.5-12.7c-0.3-1-1.6-3.7-1.3-4.7c-1.7,6.2-3.4,12.3-5.1,18.5
			c-3.8,13.7-7.6,27.4-11.4,41.1c-3.9,14.1-7.8,28.2-11.7,42.3c-1.4,4.9-2.7,9.9-4.1,14.8c-1.2,4.2-1.9,9.6-5.8,12.2
			c-3.1,2-8.1,2.7-11.7,3.7c-5.4,1.5-10.8,3-16.1,4.5c-14.5,4-29,8-43.5,12.1c-13.3,3.7-26.7,7.4-40,11.1c-5,1.4-9.9,2.8-14.9,4.1
			l124,34.4c0.5,0.1,0.9,0.4,1.3,0.5c4.9,2.3,5.6,8.9,6.9,13.7c1.5,5.2,2.9,10.5,4.4,15.7c4,14.5,8.1,29.1,12.1,43.6
			c3.8,13.6,7.6,27.2,11.3,40.8c1.4,5.2,2.9,10.3,4.3,15.5c1.8-6.4,3.5-12.8,5.3-19.2c3.9-14.1,7.8-28.2,11.7-42.2
			c3.9-14.2,7.9-28.4,11.8-42.5c1.2-4.4,2.4-8.7,3.6-13.1c1.6-5.6,2.5-11.3,8.7-13.2c2.7-0.8,5.3-1.5,8-2.2
			c11.2-3.1,22.4-6.2,33.6-9.3c14-3.9,28-7.8,42-11.7c10.8-3,21.5-6,32.3-9c2.4-0.7,4.8-1.3,7.2-2
			C413.9,254.2,407.4,252.4,400.9,250.6z M256,290.1c-18.8,0-34.1-15.3-34.1-34.1s15.3-34.1,34.1-34.1s34.1,15.3,34.1,34.1
			S274.8,290.1,256,290.1z"/>
	</g>
</g>
</svg>
