<?xml version="1.0" encoding="iso-8859-1"?>
<!-- Generator: Adobe Illustrator 19.0.0, SVG Export Plug-In . SVG Version: 6.00 Build 0)  -->
<svg xmlns="http://www.w3.org/2000/svg" xmlns:xlink="http://www.w3.org/1999/xlink" version="1.1" id="Capa_1" x="0px" y="0px" viewBox="0 0 512 512" style="enable-background:new 0 0 512 512;" xml:space="preserve" width="512px" height="512px">
<g>
	<g>
		<path d="M223.318,340.665l20.531-30.481c-6.8-2.24-11.38-5.17-13.54-6.75c-2.27-1.409-6.71-4.55-11.34-10.01l-31.831,47.241    h-70.772v40.691h137.334v-40.691H223.318z" fill="#d31d17"/>
	</g>
</g>
<g>
	<g>
		<path d="M239.579,143.499c-2.39,3.94-4.76,7.98-7.08,12.13c-25.941,46.341-34.631,84.893-25.831,114.594    c3.06,10.31,7.77,17.861,12.3,23.201l44.371-65.862L239.579,143.499z" fill="#d31d17"/>
	</g>
</g>
<g>
	<g>
		<path d="M298.39,68.667c-11.57,11.59-24.241,25.711-36.801,42.381l23.711,83.913l34.021-50.502L298.39,68.667z" fill="#d31d17"/>
	</g>
</g>
<g>
	<g>
		<path d="M322.919,192.999l-79.07,117.186c5.19,1.71,11.66,3.02,19.331,3.02c2.17,0,4.44-0.1,6.79-0.33    c30.831-3.01,63.292-25.541,96.493-66.992c17.44-21.781,31.051-43.591,41.581-63.652L322.919,192.999z" fill="#d31d17"/>
	</g>
</g>
<g>
	<g>
		<path d="M446.314,33.195c-2.04-13.36-7.08-22.841-14.97-28.161c-7.9-5.32-18.571-6.43-31.731-3.3    c-21.251,5.06-48.811,21.031-76.392,44.131l18.181,65.822l64.532-95.783l24.881,16.761l-85.753,127.284l78.112-9.86    c3.41-8.15,6.24-15.701,8.58-22.461C444.525,90.687,449.835,56.277,446.314,33.195z" fill="#d31d17"/>
	</g>
</g>
<g>
	<g>
		<polygon points="270.699,411.357 99.363,411.357 64.622,450.1 103.764,512 266.299,512 305.44,450.1   " fill="#d31d17"/>
	</g>
</g>
<g>
</g>
<g>
</g>
<g>
</g>
<g>
</g>
<g>
</g>
<g>
</g>
<g>
</g>
<g>
</g>
<g>
</g>
<g>
</g>
<g>
</g>
<g>
</g>
<g>
</g>
<g>
</g>
<g>
</g>
</svg>
