<?xml version="1.0" encoding="iso-8859-1"?>
<!-- Generator: Adobe Illustrator 19.0.0, SVG Export Plug-In . SVG Version: 6.00 Build 0)  -->
<svg xmlns="http://www.w3.org/2000/svg" xmlns:xlink="http://www.w3.org/1999/xlink" version="1.1" id="Capa_1" x="0px" y="0px" viewBox="0 0 512 512" style="enable-background:new 0 0 512 512;" xml:space="preserve" width="512px" height="512px">
<g>
	<g>
		<path d="M467,240.418h-35v-29c0-97.047-78.953-176-176-176s-176,78.953-176,176v29H45c-24.813,0-45,20.187-45,45v101    c0,24.813,20.187,45,45,45h65v-220c0-80.505,65.495-146,146-146s146,65.495,146,146v220h65c24.813,0,45-20.187,45-45v-101    C512,260.605,491.813,240.418,467,240.418z" fill="#d31d17"/>
	</g>
</g>
<g>
	<g>
		<path d="M256,306.254l-116-17.228v170.329l116,17.228l116-17.228V289.026L256,306.254z M241,444.026l-71-10.545V323.81l71,10.545    V444.026z M342,433.48l-71,10.545V334.354l71-10.545V433.48z" fill="#d31d17"/>
	</g>
</g>
<g>
</g>
<g>
</g>
<g>
</g>
<g>
</g>
<g>
</g>
<g>
</g>
<g>
</g>
<g>
</g>
<g>
</g>
<g>
</g>
<g>
</g>
<g>
</g>
<g>
</g>
<g>
</g>
<g>
</g>
</svg>
