<?xml version="1.0" encoding="utf-8"?>
<!-- Generator: Adobe Illustrator 22.0.0, SVG Export Plug-In . SVG Version: 6.00 Build 0)  -->
<svg version="1.1" id="Layer_1" xmlns="http://www.w3.org/2000/svg" xmlns:xlink="http://www.w3.org/1999/xlink" x="0px" y="0px"
	 viewBox="0 0 300 300" style="enable-background:new 0 0 300 300;" xml:space="preserve">
<style type="text/css">
	.st0{fill:#FFFFFF;}
</style>
<path class="st0" d="M150.6,232.3c-27.7,0-55.7-7.9-55.7-23.1c0-10.6,13.8-17.7,31.6-21c3.4,3.5,6.7,6.5,9.5,9
	c-19.4,2.2-30.7,8.3-30.7,11.9c0,4.5,17.2,12.7,45.3,12.7s45.3-8.2,45.3-12.7c0-3.7-11.9-10-31.9-12.1c2.9-2.6,6.2-5.6,9.6-9.1
	c18.3,3.2,32.7,10.3,32.7,21.2C206.3,224.3,178.3,232.3,150.6,232.3z"/>
<path class="st0" d="M149.7,68.7c0.1,0,0.2,0,0.3,0c0.1,0,0.2,0,0.3,0c25.3,0.4,45.8,21.3,45.8,46.6c0,30.9-33,62.2-46.1,73.4
	c-0.9-0.8-1.8-1.6-2.9-2.5c0,0,0,0,0,0c-14.5-12.9-43.2-42-43.2-70.9C103.9,90,124.4,69.1,149.7,68.7z"/>
<g>
	<g>
		<g>
			<circle cx="150.4" cy="110.6" r="24.1"/>
			<path d="M150,0C67.2,0,0,67.2,0,150c0,82.8,67.2,150,150,150s150-67.2,150-150C300,67.2,232.8,0,150,0z M149.7,68.7
				c0.1,0,0.2,0,0.3,0c0.1,0,0.2,0,0.3,0c25.3,0.4,45.8,21.3,45.8,46.6c0,30.9-33,62.2-46.1,73.4c-0.9-0.8-1.8-1.6-2.9-2.5
				c0,0,0,0,0,0c-14.5-12.9-43.2-42-43.2-70.9C103.9,90,124.4,69.1,149.7,68.7z M150.6,232.3c-27.7,0-55.7-7.9-55.7-23.1
				c0-10.6,13.8-17.7,31.6-21c3.4,3.5,6.7,6.5,9.5,9c-19.4,2.2-30.7,8.3-30.7,11.9c0,4.5,17.2,12.7,45.3,12.7s45.3-8.2,45.3-12.7
				c0-3.7-11.9-10-31.9-12.1c2.9-2.6,6.2-5.6,9.6-9.1c18.3,3.2,32.7,10.3,32.7,21.2C206.3,224.3,178.3,232.3,150.6,232.3z"/>
		</g>
	</g>
</g>
</svg>
