<?xml version="1.0" encoding="iso-8859-1"?>
<!-- Generator: Adobe Illustrator 19.0.0, SVG Export Plug-In . SVG Version: 6.00 Build 0)  -->
<svg xmlns="http://www.w3.org/2000/svg" xmlns:xlink="http://www.w3.org/1999/xlink" version="1.1" id="Capa_1" x="0px" y="0px" viewBox="0 0 512 512" style="enable-background:new 0 0 512 512;" xml:space="preserve" width="512px" height="512px">
<g>
	<g>
		<rect x="227.502" y="224.505" transform="matrix(0.7071 -0.7071 0.7071 0.7071 -119.5415 250.4107)" width="30" height="89.999" fill="#d31d17"/>
	</g>
</g>
<g>
	<g>
		<path d="M288.462,223.539c-11.777-11.776-18.779-26.728-20.964-42.676l-24.995,24.995l63.64,63.64l24.99-24.99    C315.193,242.321,300.239,235.317,288.462,223.539z" fill="#d31d17"/>
	</g>
</g>
<g>
	<g>
		<path d="M178.863,269.498L13.16,435.201c-17.546,17.546-17.546,46.093,0,63.64c17.546,17.546,46.093,17.546,63.64,0    l165.703-165.703L178.863,269.498z" fill="#d31d17"/>
	</g>
</g>
<g>
	<g>
		<path d="M493.425,0.386l-150.15,37.537c-17.816,4.454-31.022,19.09-33.632,37.299l-12.689,88.924    c-1.284,8.952,0.378,17.697,4.129,25.557l79.305-79.305c5.863-5.863,15.351-5.863,21.213,0c5.862,5.863,5.863,15.351,0,21.213    l-79.305,79.305c7.86,3.751,16.605,5.413,25.557,4.129l88.934-12.699c18.2-2.599,32.836-15.806,37.3-33.632l37.527-150.139    C514.162,8.362,503.638-2.162,493.425,0.386z" fill="#d31d17"/>
	</g>
</g>
<g>
</g>
<g>
</g>
<g>
</g>
<g>
</g>
<g>
</g>
<g>
</g>
<g>
</g>
<g>
</g>
<g>
</g>
<g>
</g>
<g>
</g>
<g>
</g>
<g>
</g>
<g>
</g>
<g>
</g>
</svg>
