<?xml version="1.0" encoding="iso-8859-1"?>
<!-- Generator: Adobe Illustrator 19.0.0, SVG Export Plug-In . SVG Version: 6.00 Build 0)  -->
<svg xmlns="http://www.w3.org/2000/svg" xmlns:xlink="http://www.w3.org/1999/xlink" version="1.1" id="Capa_1" x="0px" y="0px" viewBox="0 0 512.001 512.001" style="enable-background:new 0 0 512.001 512.001;" xml:space="preserve" width="512px" height="512px">
<g>
	<g>
		<path d="M255.999,244.427c-6.444,0-11.838,4.123-13.958,9.834l13.958,13.958l13.958-13.958    C267.837,248.55,262.443,244.427,255.999,244.427z" fill="#d31d17"/>
	</g>
</g>
<g>
	<g>
		<path d="M423.695,58.491l13.098-3.003c6.227-1.421,10.886-6.637,11.574-12.995c0.688-6.344-2.71-12.453-8.482-15.178    C339.541-20.255,280.963,4.988,256.086,23.609C231.225,5.017,172.648-20.24,72.291,27.315c-5.772,2.725-9.171,8.834-8.482,15.178    c0.688,6.358,5.348,11.574,11.574,12.995l14.098,3.003C47.535,81.48-2.265,135.295,0.08,256.236    c0.117,6.183,4.029,11.662,9.83,13.786c5.846,2.183,12.321,0.483,16.409-4.147c3.237-3.663,7.472-7.428,11.648-10.432    c-5.597,42.794-6.664,134.189,70.311,198.066c4.029,3.34,9.508,4.322,14.46,2.637c4.952-1.699,8.644-5.846,9.772-10.959    l1.582-7.193c17.698,27.953,52.083,59.496,118.788,73.663c1.025,0.22,2.08,0.322,3.12,0.322c1.04,0,2.095-0.103,3.12-0.322    c66.778-14.196,101.206-45.783,118.934-73.766l1.611,7.296c1.128,5.113,4.82,9.259,9.772,10.959    c4.967,1.729,10.432,0.718,14.46-2.637c76.946-63.863,75.731-155.227,70.135-198.037c4.029,2.9,8.219,6.549,11.662,10.432    c4.103,4.601,10.651,6.197,16.423,4.103c5.787-2.153,9.685-7.604,9.802-13.772C514.264,135.294,465.641,81.479,423.695,58.491z     M381.774,262.829l-20.76,31.133v29.418c0,16.629-9.112,31.836-23.778,39.689c-2.391,1.276-4.954,1.956-7.479,2.77    c-5.899,33.246-34.843,59.129-69.759,59.129h-7.999c-34.877,0-63.804-25.825-69.748-59.016c-2.536-0.818-5.088-1.6-7.49-2.884    c-14.665-7.853-23.778-23.06-23.778-39.689v-29.403l-20.76-31.148c-25.638-38.443-28.714-88.005-8.057-129.335    c20.253-40.476,71.36-53.781,108.707-28.861c15.266,10.197,34.985,10.197,50.252,0c37.658-25.157,95.681-14.292,115.725,45.842    l0.015,0.015C409.522,188.521,404.029,229.47,381.774,262.829z" fill="#d31d17"/>
	</g>
</g>
<g>
	<g>
		<path d="M368.4,159.966c-12.869-38.605-46.884-46.289-70.631-30.371c-25.375,16.937-58.163,16.937-83.538,0    c-22.448-14.995-53.101-6.93-65.225,17.317c-15.866,31.719-13.493,69.766,6.183,99.273l23.278,34.927    c1.641,2.461,2.52,5.362,2.52,8.321v33.945c0,8.116,5.538,11.955,7.926,13.23c2.402,1.289,8.688,3.766,15.383-0.747l36.7-24.454    v-15.762l-25.591-25.591c-1.392-1.388-2.496-3.051-3.259-4.897c-0.758-1.833-1.154-3.777-1.154-5.729    c0-24.818,20.189-45.007,45.007-45.007c24.818,0,45.007,20.189,45.007,45.007c0,1.952-0.396,3.896-1.154,5.729    c-0.764,1.846-1.868,3.509-3.26,4.897l-25.591,25.591v15.764l36.685,24.452c6.739,4.513,13.01,2.036,15.398,0.747    c2.388-1.274,7.926-5.113,7.926-13.23v-33.96c0-2.959,0.879-5.86,2.52-8.321l23.28-34.912    C373.894,220.577,378.114,189.151,368.4,159.966z M195.99,184.42c-8.285,0-15.002-6.717-15.002-15.002    c0-8.285,6.717-15.002,15.002-15.002s15.002,6.717,15.002,15.002C210.992,177.703,204.275,184.42,195.99,184.42z M316.008,184.42    c-8.285,0-15.002-6.717-15.002-15.002c0-8.285,6.717-15.002,15.002-15.002c8.285,0,15.002,6.717,15.002,15.002    C331.011,177.703,324.293,184.42,316.008,184.42z" fill="#d31d17"/>
	</g>
</g>
<g>
	<g>
		<path d="M291.03,360.827l-35.03-23.352l-35.044,23.354c-2.569,1.716-5.406,2.732-8.195,3.866    c4.928,17.118,20.56,30.271,39.24,30.271h7.999c18.643,0,34.248-13.104,39.209-30.173    C296.413,363.659,293.604,362.539,291.03,360.827z" fill="#d31d17"/>
	</g>
</g>
<g>
</g>
<g>
</g>
<g>
</g>
<g>
</g>
<g>
</g>
<g>
</g>
<g>
</g>
<g>
</g>
<g>
</g>
<g>
</g>
<g>
</g>
<g>
</g>
<g>
</g>
<g>
</g>
<g>
</g>
</svg>
