<?xml version="1.0" encoding="iso-8859-1"?>
<!-- Generator: Adobe Illustrator 19.0.0, SVG Export Plug-In . SVG Version: 6.00 Build 0)  -->
<svg xmlns="http://www.w3.org/2000/svg" xmlns:xlink="http://www.w3.org/1999/xlink" version="1.1" id="Capa_1" x="0px" y="0px" viewBox="0 0 512 512" style="enable-background:new 0 0 512 512;" xml:space="preserve" width="512px" height="512px">
<g>
	<g>
		<path d="M320.909,8.688C300.143,3.208,278.463,0,256,0C181.46,0,114.503,32.344,67.835,83.502    c24.324-1.014,51.242-1.765,62.525,17.455c10.444,17.783-0.791,40.034-10.137,55.21c-25.342,41.162-23.613,53.804-22.471,56.689    c1.582,4.028,11.499,6.782,20.259,9.199c5.537,1.538,11.162,3.135,16.465,5.186c-3.281-16.978,1.406-33.706,13.286-45.586    c20.318-20.273,42.188-9.345,55.299-2.812c14.312,7.178,16.538,6.914,20.669,2.813c12.061-12.056,28.273-29.903,86.572-29.722    c32.578,0,35.654-2.827,35.654-10.313C345.956,87.75,322.28,36.031,320.909,8.688z" fill="#d31d17"/>
	</g>
</g>
<g>
	<g>
		<path d="M244.663,369.522c-0.85-3.369-12.861-10.239-18.647-13.55c-14.253-8.145-32.007-18.296-32.007-37.09v-25.327    c-3.726-7.176-62.214-36.561-83.994-42.583c-14.751-4.087-33.12-9.17-40.181-27.144c-7.236-18.413,0.19-43.359,24.844-83.394    c11.323-18.384,9.771-24.346,9.756-24.404c-3.867-3.94-27.129-2.93-37.075-2.49c-8.723,0.379-16.425,0.524-23.355-0.018    C16.877,154.036,0,202.687,0,255c0,140.61,115.39,257,256,257c4.246,0,8.383-0.43,12.578-0.637    C252.791,488.385,244.663,439.805,244.663,369.522z" fill="#d31d17"/>
	</g>
</g>
<g>
	<g>
		<path d="M352.661,19.153c2.498,11.272,23.295,71.697,23.295,122.468c0,40.313-41.104,40.313-65.654,40.313    c-36.749-0.11-48.766,4.349-65.361,20.933c-20.273,20.303-42.173,9.375-55.298,2.813c-14.297-7.163-16.509-6.929-20.669-2.813    c-8.555,8.569-5.142,19.98-3.267,24.492c4.937,11.938,19.248,25.869,43.301,25.869c24.229,0,32.695-6.123,41.66-12.612    c7.837-5.654,17.578-12.7,34.307-12.7c18.428,0,26.851,14.077,33.003,24.346c12.667,21.24,22.524,26.473,46.787,31.787    c14.531,3.179,36.504,7.998,36.504,34.834c0,43.96-31.304,74.11-54.155,95.409c-8.101,7.544-21.954,20.186-22.1,24.697    c0,11.411,0.058,53.896,0.087,56.078c0.075,2.448-0.095,4.898-0.602,7.319C431.897,472.356,512,371.854,512,255    C512,148.603,445.454,57.325,352.661,19.153z" fill="#d31d17"/>
	</g>
</g>
<g>
	<g>
		<g>
			<path d="M296,498.304c-0.012-0.006-0.09-0.059-0.22-0.168l0,0.065L296,498.304z" fill="#d31d17"/>
			<path d="M358.348,313.359c-32.287-7.095-48.884-17.003-66.123-45.688c-2.007-3.369-5.376-8.994-6.958-9.741c0,0-0.015,0-0.029,0     c-7.295,0-10.532,2.344-16.992,7.002c-9.185,6.65-21.299,15.396-46.113,17.71c1.318,3.413,1.875,6.987,1.875,10.913v25.327     c1.274,2.109,11.06,7.705,16.904,11.045c15.029,8.613,33.75,19.307,33.75,39.595c0,107.448,18.87,126.741,21.118,128.614     l0.22-57.245c0-19.336,13.833-32.871,30.664-48.56c20.903-19.468,44.604-42.543,44.604-73.451     C369.832,315.863,362.918,314.355,358.348,313.359z" fill="#d31d17"/>
		</g>
	</g>
</g>
<g>
</g>
<g>
</g>
<g>
</g>
<g>
</g>
<g>
</g>
<g>
</g>
<g>
</g>
<g>
</g>
<g>
</g>
<g>
</g>
<g>
</g>
<g>
</g>
<g>
</g>
<g>
</g>
<g>
</g>
</svg>
