<?xml version="1.0" encoding="iso-8859-1"?>
<!-- Generator: Adobe Illustrator 19.0.0, SVG Export Plug-In . SVG Version: 6.00 Build 0)  -->
<svg xmlns="http://www.w3.org/2000/svg" xmlns:xlink="http://www.w3.org/1999/xlink" version="1.1" id="Capa_1" x="0px" y="0px" viewBox="0 0 512 512" style="enable-background:new 0 0 512 512;" xml:space="preserve" width="512px" height="512px">
<g>
	<g>
		<path d="M256,106.006c-8.276,0-15,6.724-15,15s6.724,15,15,15s15-6.724,15-15S264.276,106.006,256,106.006z" fill="#d31d17"/>
	</g>
</g>
<g>
	<g>
		<path d="M496.996,151.006h-54.564L265.609,3.48c-5.566-4.64-13.652-4.64-19.219,0L73.743,147.535    c-2.692,2.243-6.085,3.472-9.587,3.472H15.004c-8.284,0-15,6.716-15,15v15c0,16.569,13.431,30,30,30h451.993    c16.569,0,30-13.431,30-30v-15C511.996,157.723,505.28,151.006,496.996,151.006z M166.001,166.005c-8.284,0-15-6.716-15-15    s6.716-15,15-15s15,6.716,15,15S174.285,166.005,166.001,166.005z M256,166.005c-24.814,0-44.999-20.186-44.999-44.999    S231.186,76.007,256,76.007s44.999,20.186,44.999,44.999S280.815,166.005,256,166.005z M345.999,166.005c-8.284,0-15-6.716-15-15    s6.716-15,15-15s15,6.716,15,15S354.282,166.005,345.999,166.005z" fill="#d31d17"/>
	</g>
</g>
<g>
	<g>
		<path d="M30.004,241.004v30c0,16.569,13.431,30,30,30v120.998h60.999V301.003c16.569,0,30-13.431,30-30v-30    C146.518,241.004,30.004,241.004,30.004,241.004z" fill="#d31d17"/>
	</g>
</g>
<g>
	<g>
		<path d="M360.998,241.004v30c0,16.569,13.431,30,30,30v120.998h60.999V301.003c16.569,0,30-13.431,30-30v-30H360.998z" fill="#d31d17"/>
	</g>
</g>
<g>
	<g>
		<path d="M271,302.521v119.48h59.999v-45.999C330.999,339.787,305.19,309.49,271,302.521z" fill="#d31d17"/>
	</g>
</g>
<g>
	<g>
		<path d="M181.001,376.002v45.999H241v-119.48C206.81,309.49,181.001,339.787,181.001,376.002z" fill="#d31d17"/>
	</g>
</g>
<g>
	<g>
		<polygon points="279.789,452.001 232.211,452.001 172.212,512 339.788,512   " fill="#d31d17"/>
	</g>
</g>
<g>
	<g>
		<path d="M481.996,452.001H322.21L382.209,512h114.787c8.284,0,15-6.716,15-15v-15    C511.996,465.432,498.565,452.001,481.996,452.001z" fill="#d31d17"/>
	</g>
</g>
<g>
	<g>
		<path d="M30.004,452.001c-16.569,0-30,13.431-30,30v15c0,8.284,6.716,15,15,15h114.787l59.999-59.999H30.004z" fill="#d31d17"/>
	</g>
</g>
<g>
</g>
<g>
</g>
<g>
</g>
<g>
</g>
<g>
</g>
<g>
</g>
<g>
</g>
<g>
</g>
<g>
</g>
<g>
</g>
<g>
</g>
<g>
</g>
<g>
</g>
<g>
</g>
<g>
</g>
</svg>
