<?xml version="1.0" encoding="utf-8"?>
<!-- Generator: Adobe Illustrator 22.0.0, SVG Export Plug-In . SVG Version: 6.00 Build 0)  -->
<svg version="1.1" id="Layer_1" xmlns="http://www.w3.org/2000/svg" xmlns:xlink="http://www.w3.org/1999/xlink" x="0px" y="0px"
	 viewBox="0 0 300 300" style="enable-background:new 0 0 300 300;" xml:space="preserve">
<style type="text/css">
	.st0{fill:#FFFFFF;}
</style>
<g>
	<g>
		<g>
			<circle cx="150.4" cy="110.6" r="24.1"/>
			<path d="M150,0C67.2,0,0,67.2,0,150s67.2,150,150,150s150-67.2,150-150S232.8,0,150,0z"/>
		</g>
	</g>
</g>
<g>
	<g>
		<path class="st0" d="M196.6,216.2v-27.1c0-9.3-4-18.1-11-24.3L169.8,151l15.8-13.8c7-6.1,11-15,11-24.3V85.8
			c4.2-1.5,7.2-5.4,7.2-10.1c0-5.9-4.8-10.8-10.8-10.8h-86c-5.9,0-10.8,4.8-10.8,10.8c0,4.7,3,8.6,7.2,10.1v27.1
			c0,9.3,4,18.1,11,24.3l15.8,13.8l-15.8,13.8c-7,6.1-11,15-11,24.3v27.1c-4.2,1.5-7.2,5.4-7.2,10.1c0,5.9,4.8,10.8,10.8,10.8h86
			c5.9,0,10.8-4.8,10.8-10.8C203.8,221.6,200.7,217.6,196.6,216.2z M189.4,215.5h-78.8v-26.4c0-7.2,3.1-14.1,8.6-18.9l18.9-16.5
			c0.8-0.7,1.2-1.7,1.2-2.7s-0.4-2-1.2-2.7l-18.9-16.5c-5.4-4.8-8.6-11.6-8.6-18.9V86.5h78.8v26.4c0,7.2-3.1,14.1-8.6,18.9
			L162,148.3c-0.8,0.7-1.2,1.7-1.2,2.7c0,1,0.4,2,1.2,2.7l18.9,16.5c5.4,4.8,8.6,11.6,8.6,18.9V215.5L189.4,215.5z"/>
	</g>
</g>
<g>
	<g>
		<path class="st0" d="M186.3,210.4l-33.1-41.3c-1.6-2-4.9-2-6.5,0l-33.1,41.3c-1,1.2-1.2,2.9-0.5,4.4c0.7,1.4,2.1,2.3,3.7,2.3h66.1
			c1.6,0,3-0.9,3.7-2.3C187.5,213.4,187.3,211.7,186.3,210.4z"/>
	</g>
</g>
<g>
	<g>
		<path class="st0" d="M170.4,120.5c-0.6-1.5-2.1-2.6-3.8-2.6h-33.1c-1.7,0-3.2,1-3.8,2.6c-0.6,1.5-0.3,3.3,0.9,4.5l16.5,16.5
			c0.8,0.8,1.9,1.2,2.9,1.2c1.1,0,2.1-0.4,2.9-1.2l16.5-16.5C170.6,123.8,171,122,170.4,120.5z"/>
	</g>
</g>
</svg>
