<?xml version="1.0" encoding="utf-8"?>
<!-- Generator: Adobe Illustrator 22.0.0, SVG Export Plug-In . SVG Version: 6.00 Build 0)  -->
<svg version="1.1" id="Layer_1" xmlns="http://www.w3.org/2000/svg" xmlns:xlink="http://www.w3.org/1999/xlink" x="0px" y="0px"
	 viewBox="0 0 300 300" style="enable-background:new 0 0 300 300;" xml:space="preserve">
<style type="text/css">
	.st0{fill:#FFFFFF;}
</style>
<g>
	<g>
		<g>
			<circle cx="150.4" cy="110.6" r="24.1"/>
			<path d="M150,0C67.2,0,0,67.2,0,150s67.2,150,150,150s150-67.2,150-150S232.8,0,150,0z"/>
		</g>
	</g>
</g>
<g>
	<path class="st0" d="M230,151.3l-49.3-18.5l11.7-23.9l-23.9,11.9L150,71.3l-18.5,49.3l-23.9-11.7l11.9,23.9L70,151.3l49.3,18.5
		l-11.7,23.9l23.9-11.9l18.6,49.5l18.5-49.3l23.9,11.7l-11.9-23.9L230,151.3z M98.5,151.3l25-9.4l16.5,9.4H98.5z M150,202.8l-9.4-25
		l9.4-16.5V202.8z M150,141.3V99.8l9.4,25L150,141.3z M160,151.3h41.5l-25,9.4L160,151.3z"/>
</g>
</svg>
