<svg xmlns="http://www.w3.org/2000/svg" viewBox="0 -0.5 64 41" shape-rendering="crispEdges">
<path stroke="#000000" d="M4 0h2M4 1h2M4 2h2M4 3h2M4 4h2M4 5h2M4 6h2M4 7h2M4 8h2M4 9h2M4 10h2M4 11h2M4 12h2M4 13h2M4 14h2M4 15h2M4 16h2M4 17h2M4 18h2M4 19h2M4 20h2M4 21h2M4 22h2M4 23h2M4 24h2M4 25h2M4 26h2M4 27h2M4 28h2M4 29h2M4 30h2M4 31h2M4 32h2M4 33h2M4 34h2M0 35h64M0 36h64M4 37h2M4 38h2M4 39h2M4 40h2" />
<path stroke="#ce2c1c" d="M30 4h6M30 5h6M30 6h6M30 7h6M30 8h6M30 9h6M10 10h6M30 10h6M10 11h6M30 11h6M10 12h6M30 12h6M10 13h6M30 13h6M10 14h6M30 14h6M10 15h6M30 15h6M10 16h6M30 16h6M10 17h6M30 17h6M10 18h6M20 18h6M30 18h6M10 19h6M20 19h6M30 19h6M10 20h6M20 20h6M30 20h6M10 21h6M20 21h6M30 21h6M50 21h6M10 22h6M20 22h6M30 22h6M50 22h6M10 23h6M20 23h6M30 23h6M50 23h6M10 24h6M20 24h6M30 24h6M50 24h6M10 25h6M20 25h6M30 25h6M50 25h6M10 26h6M20 26h6M30 26h6M50 26h6M10 27h6M20 27h6M30 27h6M40 27h6M50 27h6M10 28h6M20 28h6M30 28h6M40 28h6M50 28h6M10 29h6M20 29h6M30 29h6M40 29h6M50 29h6M10 30h6M20 30h6M30 30h6M40 30h6M50 30h6M10 31h6M20 31h6M30 31h6M40 31h6M50 31h6M10 32h6M20 32h6M30 32h6M40 32h6M50 32h6M10 33h6M20 33h6M30 33h6M40 33h6M50 33h6M10 34h6M20 34h6M30 34h6M40 34h6M50 34h6" />
</svg>
